<svg width="197" height="197" viewBox="0 0 197 197" fill="none" xmlns="http://www.w3.org/2000/svg">
<g clip-path="url(#clip0_230_2059)">
<path d="M98.5003 57.4583V24.625H16.417V172.375H180.584V57.4583H98.5003ZM49.2503 155.958H32.8337V139.542H49.2503V155.958ZM49.2503 123.125H32.8337V106.708H49.2503V123.125ZM49.2503 90.2917H32.8337V73.875H49.2503V90.2917ZM49.2503 57.4583H32.8337V41.0417H49.2503V57.4583ZM82.0837 155.958H65.667V139.542H82.0837V155.958ZM82.0837 123.125H65.667V106.708H82.0837V123.125ZM82.0837 90.2917H65.667V73.875H82.0837V90.2917ZM82.0837 57.4583H65.667V41.0417H82.0837V57.4583ZM164.167 155.958H98.5003V139.542H114.917V123.125H98.5003V106.708H114.917V90.2917H98.5003V73.875H164.167V155.958ZM147.75 90.2917H131.334V106.708H147.75V90.2917ZM147.75 123.125H131.334V139.542H147.75V123.125Z" fill="#036C76"/>
</g>
<defs>
<clipPath id="clip0_230_2059">
<rect width="197" height="197" fill="white"/>
</clipPath>
</defs>
</svg>
