<svg width="174" height="174" viewBox="0 0 174 174" fill="none" xmlns="http://www.w3.org/2000/svg">
<g clip-path="url(#clip0_230_2045)">
<path fill-rule="evenodd" clip-rule="evenodd" d="M120.857 95.1924C130.79 101.935 137.75 111.07 137.75 123.25V145H166.75V123.25C166.75 107.445 140.867 98.0924 120.857 95.1924Z" fill="#036C76"/>
<path d="M65.25 87C81.2663 87 94.25 74.0163 94.25 58C94.25 41.9837 81.2663 29 65.25 29C49.2337 29 36.25 41.9837 36.25 58C36.25 74.0163 49.2337 87 65.25 87Z" fill="#036C76"/>
<path fill-rule="evenodd" clip-rule="evenodd" d="M108.75 87C124.772 87 137.75 74.0225 137.75 58C137.75 41.9775 124.772 29 108.75 29C105.342 29 102.152 29.725 99.1074 30.74C105.125 38.2075 108.75 47.705 108.75 58C108.75 68.295 105.125 77.7925 99.1074 85.26C102.152 86.275 105.342 87 108.75 87Z" fill="#036C76"/>
<path fill-rule="evenodd" clip-rule="evenodd" d="M65.25 94.25C45.8925 94.25 7.25 103.965 7.25 123.25V145H123.25V123.25C123.25 103.965 84.6075 94.25 65.25 94.25Z" fill="#036C76"/>
</g>
<defs>
<clipPath id="clip0_230_2045">
<rect width="174" height="174" fill="white"/>
</clipPath>
</defs>
</svg>
